<svg width="45" height="43" viewBox="0 0 45 43" fill="none" xmlns="http://www.w3.org/2000/svg">
<g clip-path="url(#clip0_13_66)">
<path d="M9.56972 39.1027H34.76C37.4039 39.1027 38.9491 37.5947 38.9491 34.9882V14.4151L35.9516 12.3671V34.2248C35.9516 35.4349 35.3001 36.1052 34.1271 36.1052H10.2027C9.01118 36.1052 8.35954 35.4349 8.35954 34.2248V12.3857L5.36202 14.4151V34.9882C5.36202 37.5947 6.90733 39.1027 9.56972 39.1027ZM0 18.3807C0 19.1441 0.59578 19.8701 1.60116 19.8701C2.12247 19.8701 2.55069 19.591 2.94166 19.2744L21.5784 3.6352C21.9879 3.26283 22.4906 3.26283 22.9004 3.6352L41.537 19.2744C41.9094 19.591 42.3376 19.8701 42.859 19.8701C43.7339 19.8701 44.4416 19.3303 44.4416 18.4366C44.4416 17.878 44.2554 17.5058 43.8644 17.1705L24.4829 0.879707C23.1052 -0.293236 21.3922 -0.293236 19.9958 0.879707L0.59578 17.1705C0.186182 17.5058 0 17.9525 0 18.3807ZM34.276 9.98397L38.9491 13.931V5.32944C38.9491 4.51025 38.4278 3.98893 37.6087 3.98893H35.6165C34.816 3.98893 34.276 4.51025 34.276 5.32944V9.98397Z" fill="white" fill-opacity="0.85"/>
</g>
<defs>
<clipPath id="clip0_13_66">
<rect width="45" height="42.2538" fill="white"/>
</clipPath>
</defs>
</svg>
