<svg width="45" height="43" viewBox="0 0 45 43" fill="none" xmlns="http://www.w3.org/2000/svg">
<g clip-path="url(#clip0_13_44)">
<path d="M23.3471 7.41467L38.6512 20.2425V34.9882C38.6512 37.5761 37.106 39.1027 34.4807 39.1027H9.99794C7.37277 39.1027 5.80886 37.5761 5.80886 34.9882V20.2425L21.113 7.41467C21.8019 6.83751 22.6397 6.81889 23.3471 7.41467ZM17.3521 18.66V32.121C17.3521 32.9961 18.283 33.3311 18.9905 32.903L30.2917 26.2563C30.962 25.8467 30.9434 24.9157 30.2731 24.5433L18.9905 17.878C18.283 17.4684 17.3521 17.7849 17.3521 18.66ZM24.4829 0.879707L33.9781 8.86083V5.32944C33.9781 4.51025 34.5181 3.98893 35.3186 3.98893H37.3108C38.1299 3.98893 38.6512 4.51025 38.6512 5.32944V12.7888L43.8644 17.1705C44.2554 17.5058 44.4416 17.878 44.4416 18.4366C44.4416 19.3303 43.7339 19.8701 42.859 19.8701C42.3376 19.8701 41.9094 19.591 41.537 19.2744L22.9004 3.6352C22.4906 3.26283 21.9879 3.26283 21.5784 3.6352L2.94166 19.2744C2.55069 19.591 2.12247 19.8701 1.60116 19.8701C0.59578 19.8701 0 19.1441 0 18.3807C0 17.9525 0.186182 17.5058 0.59578 17.1705L19.9958 0.879707C21.3922 -0.293236 23.1052 -0.293236 24.4829 0.879707Z" fill="white" fill-opacity="0.85"/>
<rect x="15.3848" y="16.0985" width="15.8875" height="17.4762" fill="#DDDDDD"/>
</g>
<defs>
<clipPath id="clip0_13_44">
<rect width="45" height="42.2538" fill="white"/>
</clipPath>
</defs>
</svg>
