<svg width="37" height="40" viewBox="0 0 37 40" fill="none" xmlns="http://www.w3.org/2000/svg">
<path d="M18.5105 19.612C23.5512 19.612 27.6601 15.1432 27.6601 9.67891C27.6601 4.25703 23.5724 0 18.5105 0C13.4699 0 9.36124 4.34175 9.36124 9.72127C9.36124 15.1643 13.4699 19.612 18.5105 19.612ZM18.5105 16.414C15.4184 16.414 12.7711 13.47 12.7711 9.72127C12.7711 6.03609 15.3549 3.19806 18.5105 3.19806C21.6662 3.19806 24.2501 5.97254 24.2501 9.67891C24.2501 13.4276 21.6239 16.414 18.5105 16.414ZM5.18892 39.224H31.7899C35.3268 39.224 37 38.1649 37 35.8353C37 30.2862 29.9897 22.2593 18.4893 22.2593C7.01031 22.2593 0 30.2862 0 35.8353C0 38.1649 1.67301 39.224 5.18892 39.224ZM4.17232 36.0258C3.62164 36.0258 3.40982 35.8776 3.40982 35.4328C3.40982 31.9383 8.78923 25.4575 18.4893 25.4575C28.2106 25.4575 33.5902 31.9383 33.5902 35.4328C33.5902 35.8776 33.3572 36.0258 32.8065 36.0258H4.17232Z" fill="white" fill-opacity="0.85"/>
</svg>
