<svg width="45" height="47" viewBox="0 0 45 47" fill="none" xmlns="http://www.w3.org/2000/svg">
<g clip-path="url(#clip0_13_75)">
<path d="M33.8297 5.25954H10.6187C10.6941 3.76496 11.6373 2.90564 13.204 2.90564H31.2445C32.8111 2.90564 33.7542 3.76496 33.8297 5.25954Z" fill="white" fill-opacity="0.85"/>
<path d="M37.5914 10.5125C36.9999 10.4185 36.3725 10.3719 35.713 10.3719H8.73507C8.07567 10.3719 7.44846 10.4185 6.85718 10.5124C7.0574 8.7457 8.25292 7.7605 10.2063 7.7605H34.2601C36.2136 7.7605 37.394 8.74572 37.5914 10.5125Z" fill="white" fill-opacity="0.85"/>
<path d="M8.73511 43.6208H35.713C39.5564 43.6208 41.4874 41.7082 41.4874 37.9199V19.0335C41.4874 15.2452 39.5564 13.3326 35.713 13.3326H8.73511C4.89163 13.3326 2.96069 15.2452 2.96069 19.0335V37.9199C2.96069 41.7082 4.89163 43.6208 8.73511 43.6208ZM8.79027 40.66C6.95129 40.66 5.92146 39.6668 5.92146 37.7544V19.199C5.92146 17.2864 6.95129 16.2934 8.79027 16.2934H35.6763C37.4784 16.2934 38.5267 17.2864 38.5267 19.199V37.7544C38.5267 39.6668 37.4784 40.66 35.6763 40.66H8.79027Z" fill="white" fill-opacity="0.85"/>
</g>
<defs>
<clipPath id="clip0_13_75">
<rect width="45" height="46.5815" fill="white"/>
</clipPath>
</defs>
</svg>
