<svg width="51" height="53" viewBox="0 0 51 53" fill="none" xmlns="http://www.w3.org/2000/svg">
<g clip-path="url(#clip0_13_58)">
<path d="M38.3401 5.98415H12.0342C12.1197 4.28363 13.1887 3.30591 14.9642 3.30591H35.4101C37.1856 3.30591 38.2545 4.28363 38.3401 5.98415Z" fill="white" fill-opacity="0.85"/>
<path d="M42.6036 11.961C41.9333 11.8541 41.2222 11.801 40.4747 11.801H9.89977C9.15244 11.801 8.44161 11.854 7.77148 11.961C7.9984 9.95079 9.35332 8.82983 11.5671 8.82983H38.8282C41.042 8.82983 42.3798 9.9508 42.6036 11.961Z" fill="white" fill-opacity="0.85"/>
<path d="M9.89981 49.6314H40.4747C44.8307 49.6314 47.0191 47.4552 47.0191 43.145V21.6562C47.0191 17.3459 44.8307 15.1698 40.4747 15.1698H9.89981C5.54386 15.1698 3.35547 17.3459 3.35547 21.6562V43.145C3.35547 47.4552 5.54386 49.6314 9.89981 49.6314Z" fill="white" fill-opacity="0.85"/>
</g>
<defs>
<clipPath id="clip0_13_58">
<rect width="51" height="53" fill="white"/>
</clipPath>
</defs>
</svg>
